# Alias OBJ Model File
# Exported from SketchUp, (c) 2000-2012 Trimble Navigation Limited
# File units = inches

mtllib building_1.mtl

g Mesh1 Model

usemtl FrontColor
v -104.72 0 83.3446
vt 104.72 -83.3446
vn 0 -1 -0
v -104.72 0 -62.8429
vt 104.72 62.8429
v 74.0303 0 -62.8429
vt -74.0303 62.8429
v 74.0303 0 83.3446
vt -74.0303 -83.3446
f 1/1/1 2/2/1 3/3/1 4/4/1 

usemtl Roofing_Shingles_Asphalt
vt -1.74563 0
vn -1 0 -0
vt 2.31513 0
v -104.72 150.875 83.3446
vt 2.31513 4.19097
v -104.72 150.875 -62.8429
vt -1.74563 4.19097
f 2/5/2 1/6/2 5/7/2 6/8/2 

usemtl Roofing_Slate_Dark
vt -3.27249 0
vn 0 0 1
vt 2.31345 0
v 74.0303 150.875 83.3446
vt 2.31345 4.71484
vt -3.27249 4.71484
f 1/9/3 4/10/3 7/11/3 5/12/3 

vt -2.60452 0
vn 1 0 -0
vt 1.96384 0
v 74.0303 150.875 -62.8429
vt 1.96384 4.71484
vt -2.60452 4.71484
f 4/13/4 3/14/4 8/15/4 7/16/4 

usemtl Roofing_Shingles_Asphalt
vt -2.0564 0
vn 0 0 -1
vt 2.90888 0
vt 2.90888 4.19097
vt -2.0564 4.19097
f 3/17/5 2/18/5 6/19/5 8/20/5 

vt -2.90888 1.74563
vn 0 1 -0
vt -2.90888 -2.31513
vt 2.0564 -2.31513
vt 2.0564 1.74563
f 6/21/6 5/22/6 7/23/6 8/24/6 

