# Alias OBJ Model File
# Exported from SketchUp, (c) 2000-2012 Trimble Navigation Limited
# File units = inches

mtllib terrain_1.mtl

g Mesh1 Model

usemtl Groundcover_River_Rock_4_inch
v -56.0311 0 64.7514
vt 2.33463 -2.69797
vn 0 -1 -0
v -56.0311 0 -50.6861
vt 2.33463 2.11192
v 59.4064 0 -50.6861
vt -2.47527 2.11192
v 59.4064 0 64.7514
vt -2.47527 -2.69797
f 1/1/1 2/2/1 3/3/1 4/4/1 

vt -2.11192 0
vn -1 0 -0
vt 2.69797 0
v -56.0311 2.5625 64.7514
vt 2.69797 0.106771
v -56.0311 2.5625 -50.6861
vt -2.11192 0.106771
f 2/5/2 1/6/2 5/7/2 6/8/2 

vt -2.33463 0
vn 1.23104e-016 0 1
vt 2.47527 0
v 59.4064 2.5625 64.7514
vt 2.47527 0.106771
vt -2.33463 0.106771
f 1/9/3 4/10/3 7/11/3 5/12/3 

vt -2.69797 0
vn 1 0 -0
vt 2.11192 0
v 59.4064 2.5625 -50.6861
vt 2.11192 0.106771
vt -2.69797 0.106771
f 4/13/4 3/14/4 8/15/4 7/16/4 

vt -2.47527 0
vn 0 0 -1
vt 2.33463 0
vt 2.33463 0.106771
vt -2.47527 0.106771
f 3/17/5 2/18/5 6/19/5 8/20/5 

vt -2.33463 2.11192
vn 0 1 -0
vt -2.33463 -2.69797
vt 2.47527 -2.69797
vt 2.47527 2.11192
f 6/21/6 5/22/6 7/23/6 8/24/6 

